<svg width="1600" height="1200" viewBox="0 0 1600 1200" fill="none" xmlns="http://www.w3.org/2000/svg">
<g clip-path="url(#clip0_2_5)">
<rect width="1600" height="1200" fill="#233027"/>
<circle cx="1374" cy="183" r="367" fill="#109F64"/>
<circle cx="800" cy="1211" r="288" fill="#06C476"/>
<g filter="url(#filter0_b_2_5)">
<rect width="1600" height="1200" fill="#0C1A11" fill-opacity="0.7"/>
</g>
<g opacity="0.7">
<path d="M943.076 1313.64C811.701 1272.43 844.171 1120.59 756.115 1036.4C665.032 950.069 600.428 989.311 474.865 874.314C395.305 801.731 445.575 431.24 401.748 334.626C348.539 218.656 221.119 217.421 197.174 87.9554C183.018 10.6404 169.071 -66.3109 154.915 -143.626" stroke="url(#paint0_linear_2_5)" stroke-miterlimit="10"/>
<path d="M896.907 1340.29C809.464 1313.06 794.411 1236.26 767.996 1163.6C754.894 1127.44 738.892 1092.48 709.681 1064.66C619.705 978.176 554.049 1015.6 433.571 900.091C409.518 877.063 398.806 826.418 392.797 765.286C380.552 635.38 387.651 460.305 362.985 380.314C360.964 373.709 358.706 367.727 356.21 362.368C311.431 268.246 218.471 249.058 172.93 174.319C162.807 157.82 155.19 138.417 150.767 115.227C136.162 38.171 122.454 -39.4029 108.298 -116.718" stroke="url(#paint1_linear_2_5)" stroke-miterlimit="10"/>
<path d="M850.735 1366.95C763.951 1339.83 748.66 1263.65 721.797 1191.25C708.906 1155.46 692.903 1120.5 664.14 1092.42C575.481 1006.14 508.115 1041.64 393.172 925.364C370.015 901.819 359.751 850.914 354.401 789.887C343.29 658.841 345.879 487.341 318.789 407.293C316.769 400.688 314.51 394.706 311.566 389.606C265.204 296.884 173.168 276.189 127.627 201.451C117.504 184.952 109.439 165.808 105.016 142.618C89.7525 65.4562 76.0447 -12.1173 62.3366 -89.691" stroke="url(#paint2_linear_2_5)" stroke-miterlimit="10"/>
<path d="M804.565 1393.6C717.781 1366.47 702.252 1290.92 675.6 1218.87C662.708 1183.09 646.468 1148.75 618.153 1120.41C530.363 1034.6 462.183 1067.65 351.878 951.134C328.959 926.965 320.25 875.649 315.558 814.727C305.372 682.176 303.661 514.616 274.147 434.511C271.678 428.164 269.42 422.182 266.923 416.823C219.638 325.606 128.526 303.407 82.1163 228.199C71.9931 211.7 63.9283 192.555 59.5049 169.365C43.7934 92.4626 30.533 14.6299 15.9559 -63.4137" stroke="url(#paint3_linear_2_5)" stroke-miterlimit="10"/>
<path d="M757.95 1420.52C671.825 1393.5 655.399 1318.47 629.405 1246.53C616.276 1211.36 600.273 1176.4 572.169 1148.43C485.696 1062.83 416.254 1093.7 311.035 976.669C288.802 951.618 280.752 900.407 276.718 839.591C267.666 705.899 261.445 541.914 229.507 461.751C227.038 455.405 224.78 449.422 221.835 444.322C172.967 354.504 82.7799 330.801 36.37 255.593C26.0364 238.73 17.9719 219.586 13.1001 196.655C-3.26996 119.646 -16.5302 41.813 -30.659 -36.4894" stroke="url(#paint4_linear_2_5)" stroke-miterlimit="10"/>
<path d="M711.772 1447.18C626.305 1420.27 609.431 1345.49 583.2 1274.18C570.07 1239.01 553.83 1204.68 526.174 1176.44C441.018 1091.06 370.763 1119.48 270.181 1002.2C248.186 976.527 241.691 924.904 238.316 864.194C230.398 729.361 219.667 568.952 185.305 488.73C182.836 482.384 180.13 476.661 177.185 471.561C127.183 382.883 37.9191 357.675 -8.93901 282.725C-19.2726 265.862 -27.3372 246.718 -32.2089 223.787C-49.2376 146.673 -62.0493 68.5818 -76.1781 -9.72057" stroke="url(#paint5_linear_2_5)" stroke-miterlimit="10"/>
<path d="M665.612 1473.82C580.356 1447.27 563.244 1373.12 537.012 1301.81C523.882 1266.64 507.853 1232.67 480.197 1204.43C395.91 1119.52 324.63 1145.13 229.345 1027.71C208.246 1001.52 202.648 949.38 199.483 889.033C192.7 753.06 177.459 596.226 140.673 515.947C137.756 509.86 135.049 504.136 132.105 499.036C80.9676 411.5 -7.82025 385.045 -54.6783 310.095C-65.0119 293.232 -73.2869 273.723 -78.6069 251.051C-96.0838 174.196 -108.447 95.846 -122.997 16.8151" stroke="url(#paint6_linear_2_5)" stroke-miterlimit="10"/>
<path d="M619.445 1500.48C534.636 1473.67 516.839 1400.4 490.817 1329.45C477.898 1294.65 461.658 1260.31 434.211 1232.44C351.69 1147.48 279.149 1170.9 188.501 1053.24C167.64 1026.42 163.149 974.127 161.091 913.627C155.442 776.513 136.349 623.36 96.7184 542.295C93.8014 536.207 91.0948 530.484 88.1502 525.384C35.4306 439.247 -52.433 411.286 -99.5014 335.973C-110.045 318.745 -118.558 299.86 -123.43 276.929C-141.117 199.709 -153.929 121.619 -168.478 42.5876" stroke="url(#paint7_linear_2_5)" stroke-miterlimit="10"/>
<path d="M573.266 1527.14C488.668 1500.7 470.87 1427.43 444.61 1357.1C431.691 1322.3 415.213 1288.59 388.215 1260.46C306.563 1175.97 233.445 1196.32 147.645 1078.77C127.471 1051.07 124.086 998.626 122.239 938.491C117.725 800.236 94.122 650.658 52.0672 569.536C49.1502 563.448 45.9952 557.984 43.0506 552.883C-10.5931 468.251 -97.7425 438.422 -145.259 363.368C-156.251 346.399 -164.316 327.255 -169.636 304.582C-187.772 227.622 -200.346 148.907 -214.895 69.8759" stroke="url(#paint8_linear_2_5)" stroke-miterlimit="10"/>
<path d="M526.644 1554.07C442.705 1527.73 424.221 1455.34 397.961 1385.01C385.252 1350.58 368.775 1316.86 341.777 1288.73C261.441 1204.45 187.3 1222 106.559 1104.93C87.0704 1076.35 84.7919 1023.75 83.1552 963.978C80.0131 823.959 51.6622 678.58 7.18336 597.4C3.81813 591.571 1.11149 585.848 -2.28134 581.006C-57.0595 497.515 -143.733 466.44 -191.25 391.385C-202.242 374.416 -210.517 354.908 -216.285 332.495C-235.079 255.429 -247.653 176.714 -261.755 97.4242" stroke="url(#paint9_linear_2_5)" stroke-miterlimit="10"/>
<path d="M480.488 1580.7C397.207 1554.47 378.274 1482.34 351.777 1412.63C338.62 1378.46 322.353 1345.11 295.803 1316.72C216.785 1232.65 142.278 1247.5 65.726 1130.43C46.4758 1101.23 45.7524 1048.22 44.7742 988.551C42.7665 847.391 10.5641 705.693 -36.9973 624.35C-40.3625 618.521 -43.5173 613.057 -46.9101 608.215C-102.823 525.865 -188.362 493.649 -236.537 418.489C-247.529 401.52 -255.805 382.011 -261.573 359.598C-280.815 282.79 -292.941 203.817 -307.463 123.799" stroke="url(#paint10_linear_2_5)" stroke-miterlimit="10"/>
<path d="M434.313 1607.37C351.242 1581.5 331.861 1509.63 305.574 1440.29C292.417 1406.11 276.15 1372.76 249.81 1344.74C172.109 1260.88 97.0267 1272.65 24.8742 1155.96C6.3103 1125.88 6.24572 1072.97 5.92614 1013.41C5.05293 871.114 -31.2113 732.733 -81.645 651.59C-85.0102 645.761 -88.1653 640.297 -91.5581 635.456C-148.605 554.246 -233.669 520.783 -282.055 445.259C-293.257 427.926 -301.98 408.676 -307.538 386.627C-327.439 309.714 -339.564 230.741 -354.086 150.723" stroke="url(#paint11_linear_2_5)" stroke-miterlimit="10"/>
<path d="M388.14 1634.03C305.518 1607.9 285.451 1536.92 259.375 1467.94C246.428 1434.13 230.16 1400.78 204.269 1372.49C127.226 1288.74 52.0163 1297.19 -15.5261 1181.24C-33.4039 1150.28 -32.3614 1097.22 -32.0224 1037.76C-31.7612 894.32 -72.5356 759.515 -125.393 678.315C-129.207 672.745 -132.362 667.28 -135.755 662.439C-193.726 582.734 -278.524 547.661 -326.91 472.136C-338.112 454.803 -346.835 435.553 -352.603 413.14C-373.163 336.122 -384.84 256.89 -399.362 176.871" stroke="url(#paint12_linear_2_5)" stroke-miterlimit="10"/>
<path d="M341.967 1660.69C259.554 1634.92 239.698 1564.3 213.173 1495.58C200.226 1461.77 183.721 1429.04 158.278 1400.5C82.5527 1316.96 7.21554 1322.08 -56.3754 1206.76C-74.0152 1175.18 -71.6284 1121.34 -70.8688 1062.61C-69.0249 917.772 -114.099 786.906 -170.039 705.543C-173.852 699.973 -177.456 694.768 -180.848 689.926C-240.402 611.621 -323.828 574.784 -372.662 499.518C-383.864 482.185 -392.588 462.935 -398.805 440.78C-419.812 364.021 -431.041 284.53 -445.984 203.783" stroke="url(#paint13_linear_2_5)" stroke-miterlimit="10"/>
<path d="M295.344 1687.61C213.59 1661.95 192.837 1591.85 166.523 1523.5C153.786 1490.05 137.071 1456.95 111.838 1428.78C37.4298 1345.45 -38.4833 1347.5 -97.6744 1232.56C-114.628 1200.09 -111.134 1146.1 -109.716 1087.48C-106.738 941.498 -155.874 813.948 -214.687 732.786C-218.5 727.216 -222.103 722.01 -225.944 717.428C-286.633 640.263 -369.582 602.181 -418.416 526.915C-429.618 509.582 -438.552 489.968 -444.769 467.813C-466.435 390.948 -477.664 311.457 -492.158 230.452" stroke="url(#paint14_linear_2_5)" stroke-miterlimit="10"/>
</g>
<g opacity="0.7">
<path d="M1731.53 1009.8C1755.46 879.043 1607.5 856.051 1573.94 749.102C1539.89 638.734 1603.83 594.749 1560.41 443.971C1533.14 348.53 1185.35 266.708 1120.68 194.801C1043.33 107.955 1100.5 -5.63883 997.941 -71.1002C936.629 -110.066 875.54 -148.721 814.229 -187.687" stroke="url(#paint15_linear_2_5)" stroke-width="0.910388" stroke-miterlimit="10"/>
<path d="M1776 977.886C1792.1 890.925 1731.65 851.339 1680.02 803.073C1654.32 779.095 1630.98 752.948 1619.94 717.506C1585.25 608.069 1648.07 562.528 1601.88 416.093C1592.69 386.869 1553.19 360.066 1502.34 333.861C1394.04 278.641 1237.31 225.182 1178.46 175.969C1173.59 171.92 1169.38 167.872 1165.82 163.825C1103.77 91.9245 1129.44 2.80892 1084.74 -63.1523C1074.9 -77.7757 1061.37 -91.1641 1043.06 -103.009C982.185 -142.284 920.441 -180.941 859.13 -219.906" stroke="url(#paint16_linear_2_5)" stroke-width="0.910388" stroke-miterlimit="10"/>
<path d="M1820.48 945.978C1836.38 859.639 1776.58 820.055 1725.38 771.479C1699.9 747.812 1676.56 721.665 1665.09 686.532C1629.99 578.336 1691.9 530.62 1642.51 388.839C1632.45 360.234 1592.52 333.741 1541.46 308.157C1431.65 253.554 1280.11 197.311 1222.31 145.925C1217.45 141.875 1213.23 137.828 1210.11 133.471C1150.01 60.6424 1173.94 -28.1663 1129.24 -94.1276C1119.4 -108.751 1106.3 -122.449 1087.99 -134.294C1027.32 -174.191 965.579 -212.846 903.836 -251.502" stroke="url(#paint17_linear_2_5)" stroke-width="0.910388" stroke-miterlimit="10"/>
<path d="M1864.95 914.066C1880.84 827.726 1821.7 788.143 1770.72 739.879C1745.24 716.212 1722.56 690.066 1710.66 655.243C1675.57 547.98 1735.71 498.705 1683.98 360.959C1673.27 332.352 1632.26 307.1 1580.99 282.137C1469.44 227.842 1323.32 169.124 1266.58 115.566C1262.15 111.206 1257.93 107.159 1254.38 103.112C1196.02 29.9761 1218.21 -58.5255 1173.49 -125.419C1163.65 -140.042 1150.56 -153.74 1132.25 -165.585C1072.01 -205.791 1009.83 -244.138 948.076 -283.726" stroke="url(#paint18_linear_2_5)" stroke-width="0.910388" stroke-miterlimit="10"/>
<path d="M1909.86 881.854C1925.54 796.135 1867.27 755.933 1816.08 708.289C1791.26 684.624 1767.92 658.477 1756.24 623.965C1720.73 517.943 1779.54 466.802 1725.04 333.4C1713.24 305.102 1672.02 280.47 1620.55 256.128C1507.47 202.451 1366.55 140.947 1310.87 85.2159C1306.44 80.8568 1302.22 76.809 1299.1 72.4527C1242.69 -1.6112 1263.14 -89.8053 1218.42 -156.699C1208.36 -171.633 1195.26 -185.331 1177.39 -197.486C1117.36 -238.313 1055.18 -276.659 992.99 -315.938" stroke="url(#paint19_linear_2_5)" stroke-width="0.910388" stroke-miterlimit="10"/>
<path d="M1954.35 849.941C1969.82 764.844 1911.98 724.331 1861.45 676.689C1836.62 653.024 1813.94 626.878 1801.83 592.676C1765.9 487.896 1822.93 435.198 1766.1 305.829C1753.64 277.53 1711.35 254.139 1659.67 230.418C1545.08 177.359 1409.35 113.07 1354.73 55.1662C1350.3 50.8071 1346.51 46.4496 1343.39 42.0933C1288.5 -32.5888 1307.21 -120.476 1262.92 -187.679C1252.86 -202.614 1239.76 -216.312 1221.89 -228.466C1162.06 -269.915 1099.46 -307.951 1037.27 -347.229" stroke="url(#paint20_linear_2_5)" stroke-width="0.910388" stroke-miterlimit="10"/>
<path d="M1998.81 818.037C2014.5 733.25 1957.32 692.739 1906.79 645.097C1881.96 621.432 1859.5 595.598 1847.39 561.396C1811.48 457.548 1866.52 402.981 1807.13 278.267C1793.81 250.588 1750.66 227.817 1699.2 204.406C1583.09 151.966 1452.56 84.8919 1399 24.8153C1394.99 20.1464 1391.21 15.7888 1388.09 11.4325C1334.72 -63.8678 1352.11 -151.758 1307.83 -218.961C1297.77 -233.896 1284.45 -247.905 1267 -260.37C1207.61 -302.127 1144.57 -339.854 1081.93 -379.755" stroke="url(#paint21_linear_2_5)" stroke-width="0.910388" stroke-miterlimit="10"/>
<path d="M2043.28 786.131C2058.55 701.654 2002.44 660.835 1952.14 613.504C1927.53 590.15 1904.85 564.003 1892.96 530.112C1856.2 427.816 1909.9 371.383 1848.18 250.704C1834.21 223.022 1790.41 201.182 1738.31 178.702C1620.69 126.88 1495.14 57.6415 1442.19 -5.23014C1438.18 -9.89898 1434.4 -14.2566 1431.28 -18.6129C1379.86 -94.8412 1395.51 -182.424 1351 -249.939C1340.72 -265.184 1328.05 -279.192 1310.18 -291.347C1250.56 -333.416 1187.96 -371.452 1125.32 -411.353" stroke="url(#paint22_linear_2_5)" stroke-width="0.910388" stroke-miterlimit="10"/>
<path d="M2087.77 754.218C2103.26 670.052 2047.16 629.233 1997.5 581.903C1972.9 558.549 1950.87 532.404 1938.56 498.823C1901.81 397.46 1953.08 339.467 1889.24 223.133C1874.18 195.76 1829.75 174.851 1777.87 152.682C1658.73 101.478 1538.38 29.4548 1486.48 -35.5895C1482.48 -40.2583 1479.13 -44.9259 1476.01 -49.2822C1426.33 -125.818 1440.02 -213.404 1395.94 -281.228C1386.09 -296.784 1372.99 -310.482 1355.54 -322.946C1296.36 -365.325 1233.1 -403.364 1170.46 -443.264" stroke="url(#paint23_linear_2_5)" stroke-width="0.910388" stroke-miterlimit="10"/>
<path d="M2132.69 722.001C2147.97 638.456 2092.95 597.328 2043.3 549.998C2018.92 526.956 1996.89 500.811 1984.57 467.23C1947.41 367.108 1996.69 307.248 1930.96 195.57C1914.81 168.506 1869.74 148.526 1818.08 126.669C1696.76 76.0814 1582.27 1.2741 1531.43 -65.9428C1527.86 -70.9215 1524.08 -75.2791 1521.38 -79.9452C1473.23 -157.099 1485.61 -244.689 1441.53 -312.513C1431.67 -328.068 1418.35 -342.077 1401.34 -354.851C1342.37 -397.851 1279.11 -435.889 1216.04 -475.48" stroke="url(#paint24_linear_2_5)" stroke-width="0.910388" stroke-miterlimit="10"/>
<path d="M2177.14 690.097C2192.21 607.173 2137.63 565.735 2088.63 518.407C2064.68 495.054 2042.88 469.221 2030.13 435.95C1992.55 337.07 2039.62 275.962 1971.98 168.009C1955.18 140.943 1909.04 122.204 1857.17 100.968C1734.33 50.9983 1624.83 -25.9732 1575.25 -95.9838C1571.68 -100.962 1568.33 -105.63 1565.64 -110.296C1519 -188.068 1529.86 -275.039 1485.99 -343.484C1476.14 -359.04 1462.82 -373.049 1445.81 -385.823C1387.26 -429.133 1323.57 -466.861 1260.06 -507.074" stroke="url(#paint25_linear_2_5)" stroke-width="0.910388" stroke-miterlimit="10"/>
<path d="M2221.62 658.187C2236.92 575.574 2182.77 533.827 2133.99 486.809C2110.04 463.457 2088.24 437.624 2075.71 404.664C2037.72 307.026 2082.36 244.359 2013.04 140.441C1995.16 113.684 1948.8 95.5661 1896.73 74.9508C1772.37 25.5998 1667.63 -53.8472 1619.55 -126.34C1615.97 -131.319 1612.63 -135.986 1609.93 -140.652C1564.81 -219.042 1574.36 -306.017 1530.27 -374.773C1520.19 -390.64 1507.31 -404.959 1490.52 -417.422C1432.18 -461.352 1368.49 -499.08 1304.97 -539.293" stroke="url(#paint26_linear_2_5)" stroke-width="0.910388" stroke-miterlimit="10"/>
<path d="M2266.11 626.281C2280.97 543.978 2227.91 501.922 2179.36 455.216C2155.63 432.175 2133.83 406.341 2120.87 373.691C2082.66 276.673 2124.45 212.758 2053.67 113.187C2034.7 86.7378 1987.7 69.551 1935.42 49.5567C1809.55 0.823838 1710 -81.4084 1662.98 -156.074C1659.84 -161.362 1656.49 -166.03 1653.79 -170.696C1610.42 -249.393 1618.43 -336.682 1574.34 -405.438C1564.26 -421.305 1551.37 -435.624 1534.36 -448.398C1476.24 -492.949 1412.11 -530.367 1348.6 -570.58" stroke="url(#paint27_linear_2_5)" stroke-width="0.910388" stroke-miterlimit="10"/>
<path d="M2310.58 594.368C2325.67 512.377 2272.83 470.632 2224.71 423.616C2200.99 400.575 2179.84 374.743 2166.45 342.402C2127.82 246.627 2166.75 181.463 2094.72 85.6177C2075.09 59.1674 2026.8 42.9094 1974.97 23.5374C1847.14 -24.2675 1753.02 -108.974 1707.26 -186.433C1704.12 -191.721 1701.2 -196.698 1698.51 -201.364C1657.08 -280.989 1662.92 -367.661 1619.26 -436.727C1609.18 -452.594 1596.3 -466.913 1579.71 -479.998C1522.02 -524.859 1457.46 -561.967 1393.5 -602.802" stroke="url(#paint28_linear_2_5)" stroke-width="0.910388" stroke-miterlimit="10"/>
<path d="M2355.5 562.151C2370.38 480.78 2318.41 438.416 2270.51 391.711C2247.01 368.981 2225.64 342.838 2212.47 310.808C2173.43 216.275 2209.93 149.552 2136.22 57.7424C2115.5 31.6005 2066.57 16.2735 2014.53 -2.4775C1885.18 -49.6642 1795.82 -136.847 1751.55 -216.788C1748.41 -222.077 1745.49 -227.054 1743.23 -232.03C1703.32 -312.273 1707.86 -398.947 1664.19 -468.013C1654.12 -483.879 1641.01 -498.51 1624.43 -511.594C1566.94 -557.076 1502.38 -594.184 1437.99 -634.71" stroke="url(#paint29_linear_2_5)" stroke-width="0.910388" stroke-miterlimit="10"/>
</g>
</g>
<defs>
<filter id="filter0_b_2_5" x="-400" y="-400" width="2400" height="2000" filterUnits="userSpaceOnUse" color-interpolation-filters="sRGB">
<feFlood flood-opacity="0" result="BackgroundImageFix"/>
<feGaussianBlur in="BackgroundImage" stdDeviation="200"/>
<feComposite in2="SourceAlpha" operator="in" result="effect1_backgroundBlur_2_5"/>
<feBlend mode="normal" in="SourceGraphic" in2="effect1_backgroundBlur_2_5" result="shape"/>
</filter>
<linearGradient id="paint0_linear_2_5" x1="571.079" y1="572.519" x2="363.122" y2="692.583" gradientUnits="userSpaceOnUse">
<stop stop-color="white"/>
<stop offset="1"/>
</linearGradient>
<linearGradient id="paint1_linear_2_5" x1="524.816" y1="599.222" x2="321.818" y2="716.423" gradientUnits="userSpaceOnUse">
<stop stop-color="white"/>
<stop offset="1"/>
</linearGradient>
<linearGradient id="paint2_linear_2_5" x1="478.55" y1="625.939" x2="280.451" y2="740.312" gradientUnits="userSpaceOnUse">
<stop stop-color="white"/>
<stop offset="1"/>
</linearGradient>
<linearGradient id="paint3_linear_2_5" x1="432.286" y1="652.635" x2="239.054" y2="764.198" gradientUnits="userSpaceOnUse">
<stop stop-color="white"/>
<stop offset="1"/>
</linearGradient>
<linearGradient id="paint4_linear_2_5" x1="386.026" y1="679.355" x2="197.621" y2="788.13" gradientUnits="userSpaceOnUse">
<stop stop-color="white"/>
<stop offset="1"/>
</linearGradient>
<linearGradient id="paint5_linear_2_5" x1="339.753" y1="706.073" x2="156.14" y2="812.082" gradientUnits="userSpaceOnUse">
<stop stop-color="white"/>
<stop offset="1"/>
</linearGradient>
<linearGradient id="paint6_linear_2_5" x1="293.499" y1="732.768" x2="114.639" y2="836.033" gradientUnits="userSpaceOnUse">
<stop stop-color="white"/>
<stop offset="1"/>
</linearGradient>
<linearGradient id="paint7_linear_2_5" x1="247.237" y1="759.477" x2="73.0931" y2="860.019" gradientUnits="userSpaceOnUse">
<stop stop-color="white"/>
<stop offset="1"/>
</linearGradient>
<linearGradient id="paint8_linear_2_5" x1="200.964" y1="786.197" x2="31.5006" y2="884.036" gradientUnits="userSpaceOnUse">
<stop stop-color="white"/>
<stop offset="1"/>
</linearGradient>
<linearGradient id="paint9_linear_2_5" x1="154.697" y1="812.917" x2="-10.1216" y2="908.075" gradientUnits="userSpaceOnUse">
<stop stop-color="white"/>
<stop offset="1"/>
</linearGradient>
<linearGradient id="paint10_linear_2_5" x1="108.447" y1="839.605" x2="-51.7639" y2="932.102" gradientUnits="userSpaceOnUse">
<stop stop-color="white"/>
<stop offset="1"/>
</linearGradient>
<linearGradient id="paint11_linear_2_5" x1="62.1768" y1="866.324" x2="-93.4608" y2="956.182" gradientUnits="userSpaceOnUse">
<stop stop-color="white"/>
<stop offset="1"/>
</linearGradient>
<linearGradient id="paint12_linear_2_5" x1="15.9106" y1="893.045" x2="-135.192" y2="980.284" gradientUnits="userSpaceOnUse">
<stop stop-color="white"/>
<stop offset="1"/>
</linearGradient>
<linearGradient id="paint13_linear_2_5" x1="-30.3571" y1="919.752" x2="-177.018" y2="1004.43" gradientUnits="userSpaceOnUse">
<stop stop-color="white"/>
<stop offset="1"/>
</linearGradient>
<linearGradient id="paint14_linear_2_5" x1="-76.6258" y1="946.475" x2="-219.034" y2="1028.69" gradientUnits="userSpaceOnUse">
<stop stop-color="white"/>
<stop offset="1"/>
</linearGradient>
<linearGradient id="paint15_linear_2_5" x1="1251.84" y1="426.406" x2="1452.16" y2="282.687" gradientUnits="userSpaceOnUse">
<stop stop-color="white"/>
<stop offset="1"/>
</linearGradient>
<linearGradient id="paint16_linear_2_5" x1="1296.4" y1="394.431" x2="1491.95" y2="254.139" gradientUnits="userSpaceOnUse">
<stop stop-color="white"/>
<stop offset="1"/>
</linearGradient>
<linearGradient id="paint17_linear_2_5" x1="1340.97" y1="362.459" x2="1531.8" y2="225.553" gradientUnits="userSpaceOnUse">
<stop stop-color="white"/>
<stop offset="1"/>
</linearGradient>
<linearGradient id="paint18_linear_2_5" x1="1385.52" y1="330.481" x2="1571.67" y2="196.939" gradientUnits="userSpaceOnUse">
<stop stop-color="white"/>
<stop offset="1"/>
</linearGradient>
<linearGradient id="paint19_linear_2_5" x1="1430.1" y1="298.514" x2="1611.59" y2="168.309" gradientUnits="userSpaceOnUse">
<stop stop-color="white"/>
<stop offset="1"/>
</linearGradient>
<linearGradient id="paint20_linear_2_5" x1="1474.67" y1="266.536" x2="1651.55" y2="139.641" gradientUnits="userSpaceOnUse">
<stop stop-color="white"/>
<stop offset="1"/>
</linearGradient>
<linearGradient id="paint21_linear_2_5" x1="1519.22" y1="234.567" x2="1691.52" y2="110.957" gradientUnits="userSpaceOnUse">
<stop stop-color="white"/>
<stop offset="1"/>
</linearGradient>
<linearGradient id="paint22_linear_2_5" x1="1563.79" y1="202.595" x2="1731.54" y2="82.2447" gradientUnits="userSpaceOnUse">
<stop stop-color="white"/>
<stop offset="1"/>
</linearGradient>
<linearGradient id="paint23_linear_2_5" x1="1608.37" y1="170.617" x2="1771.61" y2="53.5015" gradientUnits="userSpaceOnUse">
<stop stop-color="white"/>
<stop offset="1"/>
</linearGradient>
<linearGradient id="paint24_linear_2_5" x1="1652.94" y1="138.645" x2="1811.71" y2="24.7394" gradientUnits="userSpaceOnUse">
<stop stop-color="white"/>
<stop offset="1"/>
</linearGradient>
<linearGradient id="paint25_linear_2_5" x1="1697.48" y1="106.676" x2="1851.82" y2="-4.04485" gradientUnits="userSpaceOnUse">
<stop stop-color="white"/>
<stop offset="1"/>
</linearGradient>
<linearGradient id="paint26_linear_2_5" x1="1742.06" y1="74.7011" x2="1891.99" y2="-32.8595" gradientUnits="userSpaceOnUse">
<stop stop-color="white"/>
<stop offset="1"/>
</linearGradient>
<linearGradient id="paint27_linear_2_5" x1="1786.64" y1="42.7297" x2="1932.2" y2="-61.6966" gradientUnits="userSpaceOnUse">
<stop stop-color="white"/>
<stop offset="1"/>
</linearGradient>
<linearGradient id="paint28_linear_2_5" x1="1831.2" y1="10.7525" x2="1972.48" y2="-90.604" gradientUnits="userSpaceOnUse">
<stop stop-color="white"/>
<stop offset="1"/>
</linearGradient>
<linearGradient id="paint29_linear_2_5" x1="1875.78" y1="-21.2204" x2="2012.97" y2="-119.638" gradientUnits="userSpaceOnUse">
<stop stop-color="white"/>
<stop offset="1"/>
</linearGradient>
<clipPath id="clip0_2_5">
<rect width="1600" height="1200" fill="white"/>
</clipPath>
</defs>
</svg>
